<?xml version="1.0" encoding="UTF-8" standalone="no"?>
<!-- Created with Inkscape (http://www.inkscape.org/) -->

<svg
   xmlns:dc="http://purl.org/dc/elements/1.1/"
   xmlns:cc="http://creativecommons.org/ns#"
   xmlns:rdf="http://www.w3.org/1999/02/22-rdf-syntax-ns#"
   xmlns:svg="http://www.w3.org/2000/svg"
   xmlns="http://www.w3.org/2000/svg"
   xmlns:sodipodi="http://sodipodi.sourceforge.net/DTD/sodipodi-0.dtd"
   xmlns:inkscape="http://www.inkscape.org/namespaces/inkscape"
   width="175.94421mm"
   height="89.819138mm"
   viewBox="0 0 175.94421 89.819138"
   version="1.1"
   id="svg8"
   inkscape:version="0.92.4 (5da689c313, 2019-01-14)"
   sodipodi:docname="clear.svg">
  <defs
     id="defs2" />
  <sodipodi:namedview
     id="base"
     pagecolor="#ffffff"
     bordercolor="#666666"
     borderopacity="1.0"
     inkscape:pageopacity="0.0"
     inkscape:pageshadow="2"
     inkscape:zoom="0.5"
     inkscape:cx="201.48971"
     inkscape:cy="40.383187"
     inkscape:document-units="mm"
     inkscape:current-layer="flowRoot815"
     showgrid="false"
     fit-margin-top="0"
     fit-margin-left="0"
     fit-margin-right="0"
     fit-margin-bottom="0"
     inkscape:window-width="1920"
     inkscape:window-height="986"
     inkscape:window-x="-11"
     inkscape:window-y="-11"
     inkscape:window-maximized="1" />
  <metadata
     id="metadata5">
    <rdf:RDF>
      <cc:Work
         rdf:about="">
        <dc:format>image/svg+xml</dc:format>
        <dc:type
           rdf:resource="http://purl.org/dc/dcmitype/StillImage" />
        <dc:title></dc:title>
      </cc:Work>
    </rdf:RDF>
  </metadata>
  <g
     inkscape:label="レイヤー 1"
     inkscape:groupmode="layer"
     id="layer1"
     transform="translate(-16.11202,-90.86558)">
    <g
       aria-label="Clear!"
       transform="matrix(0.99733367,0,0,0.99733367,607.34986,-470.47731)"
       style="font-style:normal;font-variant:normal;font-weight:normal;font-stretch:normal;font-size:133.33334351px;line-height:0;font-family:Eustache;-inkscape-font-specification:Eustache;font-variant-ligatures:normal;font-variant-caps:normal;font-variant-numeric:normal;font-feature-settings:normal;text-align:start;letter-spacing:-4.46999979px;word-spacing:0px;writing-mode:lr-tb;text-anchor:start;fill:#000000;fill-opacity:1;stroke:none"
       id="flowRoot815">
      <path
         d="m -579.21849,652.84362 0.4,-0.4 c 0,0 0,0 0,0 v 0 c 0,-0.13333 0.13333,-0.13333 0.26667,-0.13333 l 0.4,0.26667 c 1.06667,-0.13334 1.86667,-0.8 2.93333,-1.06667 0.4,-0.13333 0.8,-0.53333 1.2,-0.8 0.26667,-0.26667 0.53334,-0.4 0.8,-0.53333 0.26667,-0.13334 0.53334,-0.4 0.93334,-0.26667 l 0.13333,-0.53333 c 0.53333,-0.26667 1.2,-0.66667 1.86667,-0.93334 0.26666,-0.13333 0.4,-0.26666 0.66666,-0.53333 0.8,-0.66667 1.46667,-1.46667 2.4,-2.13333 0.26667,-0.4 0.8,-0.26667 0.93334,-0.53334 0.26666,-0.4 0.26666,-0.8 0.53333,-0.93333 0.26667,-0.13333 0.66667,0 0.93333,-0.26667 0,0 0.13334,-0.13333 0.26667,-0.26666 0.53333,-0.66667 1.2,-1.2 1.73333,-1.73334 0.8,-0.26666 1.2,-0.8 1.6,-1.33333 0.66667,-0.53333 1.33334,-1.2 2,-1.86667 0.53334,-0.26666 0.8,-0.66666 1.2,-1.06666 0.53334,-0.8 1.2,-1.46667 2,-2.13334 0.26667,-0.13333 0.4,-0.53333 0.66667,-0.8 0.53333,-0.66666 1.06667,-1.33333 1.86667,-1.73333 0.13333,-0.66667 0.66666,-1.06667 1.06666,-1.33333 l 0.13334,-0.53334 c 0.26666,-0.26666 0.66666,-0.4 0.8,-0.8 0.26666,-0.4 0.66666,-0.66667 0.93333,-1.06667 0.4,-0.4 0.66667,-0.66666 0.93333,-1.06666 0.4,-0.8 0.93334,-1.33334 1.46667,-2 0,0 0.26667,-0.13334 0.26667,-0.26667 0.53333,-1.2 1.46666,-2.13333 2,-3.2 0.26666,-0.26667 0.4,-0.66667 0.66666,-0.93333 0.66667,-0.66667 1.06667,-1.6 1.46667,-2.26667 0.4,-0.66667 0.66667,-1.33333 0.66667,-2 0.66666,-0.66667 0.8,-2.4 0.8,-3.2 -0.66667,0.26667 -0.93334,0.93333 -1.6,1.33333 -0.26667,0.26667 -0.4,0.66667 -0.66667,1.06667 -0.8,0.26667 -0.93333,1.2 -1.6,1.6 l -0.13333,0.4 c -0.8,0.26667 -1.2,1.06667 -1.73334,1.6 0.13334,0.26667 0.13334,0.53333 -0.13333,0.66667 l -0.8,0.13333 c -0.66667,0.66667 -1.33333,1.33333 -2,2 -0.26667,0.26667 -0.53333,0.4 -0.8,0.8 -0.4,0.53333 -0.93333,0.93333 -1.46667,1.46667 -0.66666,0.66666 -1.6,1.06666 -2.26666,1.86666 -0.13334,0.26667 -0.4,0.53334 -0.53334,0.66667 -0.93333,0.66667 -1.73333,1.33333 -2.53333,2.13334 -0.8,0.8 -1.86667,1.06666 -2.53333,2.13333 0,0.13333 -0.13334,0.13333 -0.26667,0.13333 0,0.13334 0,0.13334 -0.13333,0.26667 0,0.26667 0.4,0.4 0,0.66667 -0.26667,0 -0.4,-0.26667 -0.8,-0.13334 -0.13334,0.13334 -0.4,0.4 -0.66667,0.53334 -0.4,0.53333 -0.8,1.06666 -1.33333,1.33333 -0.66667,0.4 -1.33334,0.66667 -2,1.06667 -0.66667,0.4 -1.06667,1.06666 -1.46667,1.46666 -0.13333,0.4 0.26667,0.53334 0.4,0.8 -0.26667,0.13334 -0.4,-0.26666 -0.66667,-0.13333 l -1.2,0.4 c -0.66666,0.66667 -1.46666,1.46667 -2.26666,1.86667 -0.26667,0.13333 -0.53334,0.26666 -0.66667,0.4 -0.53333,0.53333 -0.93333,0.93333 -1.6,1.2 -0.53333,0.26666 -0.66667,0.66666 -0.8,1.06666 -0.8,-0.13333 -1.2,0.4 -1.6,0.8 l -0.66667,0.13334 c -0.4,0.13333 -0.8,0.53333 -1.2,0.8 -0.53333,0.26666 -1.06667,0.26666 -1.6,0.26666 -0.26667,0 -0.53333,0 -0.66667,0.13334 -0.13333,0.13333 -0.26666,0.26666 -0.4,0.26666 -0.13333,0 -0.26666,0 -0.26666,0 -0.13334,0 -0.26667,0 -0.4,0.13334 -1.06667,0.26666 -1.06667,-0.93334 -2,-0.26667 -0.26667,0.13333 -0.53334,0 -0.66667,-0.13333 -0.26667,-0.13334 -0.4,-0.26667 -0.53333,-0.4 -0.66667,-1.06667 -1.06667,-2.8 -1.06667,-4 -0.13333,-0.66667 -0.13333,-1.33334 -0.26667,-1.86667 -0.26666,-0.8 -0.26666,-1.46667 -0.26666,-2.13333 -0.13334,-0.66667 -0.26667,-1.46667 -0.26667,-2.13334 0,-0.53333 0.13333,-0.93333 0,-1.33333 0,-0.8 0.26667,-1.6 0.13333,-2.26667 0.13334,-0.4 0.13334,-0.93333 0.13334,-1.33333 0,-0.53334 0,-1.06667 0.26666,-1.46667 -0.13333,-0.26667 -0.13333,-0.4 -0.26666,-0.66667 l 0.4,-0.8 c 0,-0.66666 0.13333,-1.33333 0.26666,-2 0,-0.26666 0.13334,-0.53333 0.13334,-0.66666 -0.26667,-0.93334 0.26666,-1.86667 0.26666,-2.8 0.4,-0.4 0.13334,-1.06667 0.26667,-1.6 0.26667,-0.53334 0.53333,-1.2 0.66667,-1.73334 l -0.26667,-0.8 c 0.26667,-0.4 0.53333,-0.66666 0.53333,-1.2 0.26667,-0.66666 0.4,-1.46666 0.8,-2.26666 0.26667,-0.8 0.4,-1.6 0.53334,-2.26667 0.4,-1.06667 1.2,-1.86667 1.06666,-2.93333 0.13334,-0.4 0.4,-0.8 0.53334,-1.33334 0.26666,-1.06666 0.8,-2 1.2,-2.93333 0.4,-1.06667 0.66666,-2.13333 1.2,-3.06667 0.4,-0.53333 0.53333,-1.06666 0.66667,-1.6 0.13333,-0.4 0.53333,-0.53333 0.53333,-0.8 0,-0.53333 0.26667,-1.06666 0.53333,-1.46666 0.26667,-0.53334 0.4,-1.2 0.93334,-1.6 0.13333,-0.53334 0.26666,-0.93334 0.66666,-1.46667 0.26667,-0.4 0.4,-0.8 0.66667,-1.33333 0.26667,-0.66667 0.53333,-1.33334 0.93333,-1.86667 0.26667,-0.4 0.26667,-0.66667 0.4,-1.06667 0.53334,-0.53333 1.06667,-1.06666 1.2,-1.86666 0.53334,-0.53334 0.93334,-0.93334 1.2,-1.6 0,-0.13334 0.13334,-0.26667 0.26667,-0.4 0.26667,-0.26667 0.4,-0.40001 0.4,-0.66667 0,-0.66667 0.53333,-0.93334 0.93333,-1.33334 l 0.26667,-0.8 c 0.8,-0.53333 0.8,-1.6 1.6,-1.86666 l 0.4,-1.06667 c 0.26667,-0.26667 0.53333,-0.53333 0.8,-0.8 l 0.13333,-0.66667 c 0.4,-0.4 0.8,-0.66666 1.33334,-0.8 0.13333,-0.66666 0.8,-0.8 0.93333,-1.33333 0.13333,-0.4 0.53333,-0.66667 0.8,-0.93333 0.53333,-0.4 0.93333,-0.93334 1.33333,-1.2 0.53334,-0.26667 0.53334,-0.93334 0.8,-1.33334 0.8,-0.53333 1.6,-1.06666 2.26667,-1.6 0.53333,-0.66666 1.2,-1.2 1.73333,-1.73333 0.4,-0.4 0.8,-0.8 1.46667,-0.8 0.13333,0 0.26667,0 0.26667,-0.13333 0.66666,-0.53334 1.46666,-0.93334 2.26666,-1.06667 0.4,-0.13333 0.8,-0.13333 1.2,-0.26667 0.4,-0.13333 0.66667,-0.4 1.06667,-0.13333 0.26667,0 0.4,0.26667 0.53333,0.4 0.13334,0 0.13334,0.13333 0.13334,0.13333 0.13333,0.13334 0.13333,0.26667 0.13333,0.26667 0.13333,0.26667 0.4,0.26667 0.4,0.53333 0,0 0,0.13334 0,0.13334 0,0 0.13333,0.13333 0.13333,0.13333 0.13334,0 0.13334,0.26667 0.13334,0.4 0,0.13333 0,0.4 0.13333,0.53333 0.13333,0 0.13333,0 0.26667,0.13334 0.4,0.26666 0,0.8 -0.13334,1.33333 -0.13333,0.4 -0.13333,0.93333 -0.26666,1.46667 0,0.26666 0,0.4 0.13333,0.66666 l -0.4,1.06667 c 0,0.26667 0,0.4 0,0.53333 l -0.26667,0.26667 c -0.13333,0.93333 -0.53333,1.73333 -0.66666,2.66667 -0.66667,0.8 -0.66667,1.73333 -1.06667,2.66666 -0.53333,0.8 -0.53333,1.73334 -1.2,2.4 -0.13333,0.13334 -0.13333,0.13334 -0.13333,0.26667 0,0.4 -0.26667,0.8 -0.53334,1.06667 0,0.13333 0,0.26666 0,0.4 -0.13333,0.13333 -0.26666,0.26666 -0.26666,0.53333 -0.26667,0.53334 -0.4,1.2 -0.53334,1.86667 -0.26666,0.13333 -0.66666,0.13333 -0.8,0.53333 -0.4,0.93334 -0.93333,1.86667 -1.6,2.66667 0,0.53333 -0.26666,0.8 -0.53333,1.2 -0.4,0.53333 -0.8,1.2 -0.93333,1.86667 l -0.53334,0.26666 c -0.4,0.26667 -0.66666,0.66667 -0.8,1.33334 -0.13333,0.13333 0.26667,0.26666 0.26667,0.53333 -0.93333,0 -1.46667,0.53333 -1.86667,1.33333 -0.13333,0.4 -0.53333,0.8 -0.8,1.2 -0.13333,0.13334 -0.26666,0.4 -0.4,0.66667 0,0.26667 0,0.53333 0,0.66667 0,0.4 -0.13333,0.66666 -0.26666,0.93333 0,0.13333 -0.13334,0.13333 -0.13334,0 0,-0.13333 0,-0.26667 0,-0.4 0,-0.13333 0,-0.26667 -0.13333,-0.26667 -1.06667,0.8 -1.33333,1.06667 -1.73333,2 -0.66667,0.4 -0.93334,1.33334 -1.46667,1.73334 -0.26667,0.26666 -0.4,0.66666 -0.26667,0.93333 -0.26666,0.13333 -0.53333,0.13333 -0.66666,0.4 -0.13334,0.13333 -0.13334,0.26667 -0.26667,0.53333 h -0.4 c -0.93333,0.66667 -1.2,1.73334 -2.13333,2.26667 l -0.26667,0.66667 c -0.66667,0.26666 -1.2,0.66666 -1.6,1.33333 v 0.4 c -0.53333,0 -0.8,0.53333 -1.2,0.8 0,0.26667 -0.13333,0.53333 -0.26667,0.8 l 0.13334,0.53333 c 0,0.13334 -0.13334,0.13334 -0.26667,0.26667 -0.26667,-0.26667 0,-0.66667 -0.13333,-0.8 -0.26667,-0.4 -0.8,-0.66667 -1.2,-0.8 -0.26667,0.4 -0.8,0.26667 -1.2,0.4 0,0.53333 0.53333,0.8 0.26666,1.2 -0.26666,0.13333 -0.53333,-0.26667 -0.8,0 -0.26666,0.4 0.13334,0.53333 0.26667,0.8 -0.13333,0.13333 -0.4,0.26667 -0.66667,0.13333 -0.13333,0 -0.26666,0 -0.4,0.13334 0,0.13333 0,0.4 0.13334,0.4 0.13333,0.13333 0.4,0.26666 0.53333,0.53333 0.4,0.4 0.66667,0.8 1.06667,1.2 l 0.8,0.4 c 0.53333,-0.4 1.06666,0 1.73333,-0.26667 0.66667,-0.4 1.33333,-0.8 2,-1.2 0.66667,-0.4 0.93333,-1.2 1.73333,-1.6 0,-0.26666 0.13334,-0.53333 0.13334,-0.8 l 0.66666,0.13334 c 1.46667,-1.06667 2.4,-2.53334 3.73334,-3.6 0.13333,-0.13334 0.13333,-0.4 0.26666,-0.66667 0.4,-0.13333 0.66667,-0.26667 0.93334,-0.66667 0,-0.26666 0.13333,-0.4 0.4,-0.4 0.4,-0.26666 0.66666,-0.53333 0.8,-0.93333 0.26666,-0.4 0.8,-0.53333 0.93333,-0.93333 0.13333,-0.26667 0.4,-0.4 0.53333,-0.66667 0.13334,-0.13333 0.26667,-0.4 0.4,-0.53333 0.26667,-0.13334 0.66667,-0.26667 0.8,-0.53334 0,-0.26666 -0.26666,-0.4 -0.26666,-0.53333 l 0.66666,-0.13333 c 0.26667,-0.93334 1.06667,-1.46667 1.73334,-2 0.4,-0.66667 0.8,-1.33334 1.06666,-2 0.13334,-0.13334 0.26667,-0.13334 0.26667,-0.26667 0.8,-0.8 1.73333,-1.6 2,-2.66667 0,-0.13333 0,-0.13333 0.13333,-0.26666 0.26667,-0.26667 0.4,-0.66667 0.66667,-0.93334 0.4,-0.26666 0.26667,-0.8 0.4,-0.93333 0.53333,-0.53333 0.66667,-1.2 1.2,-1.73333 0.66667,-0.8 1.06667,-1.6 1.46667,-2.66667 0.66666,-0.53333 1.06666,-1.2 1.2,-2 0.26666,-0.53333 0.4,-0.93333 0.8,-1.2 0,-0.66667 0.26666,-1.2 0.53333,-1.6 0.4,-0.53334 0.26667,-1.2 0.66667,-1.73334 0,0 0.13333,-0.13333 0.13333,-0.13333 0.26667,-0.66667 0.66667,-1.2 0.8,-2 0,-0.8 0.26667,-1.33333 0.66667,-2 -0.13334,-0.66667 0.26666,-1.2 0.4,-1.86667 0,-0.8 0.4,-1.46666 0.26666,-2.13333 l 0.4,-0.53333 c -0.26666,-0.53334 -0.26666,-1.2 -0.13333,-1.73334 0.13333,-0.13333 0.13333,-0.4 0,-0.66666 -0.26667,-0.4 0.13333,-0.8 0,-1.2 -0.4,-0.93334 -0.4,-1.86667 -0.8,-2.93334 -0.53333,-0.66666 -0.93333,-1.46666 -1.2,-2.53333 -0.53333,-0.26667 -0.93333,-0.66667 -1.2,-1.06667 -0.93333,-0.53333 -1.86667,-1.06666 -2.8,-1.46666 -0.8,0 -1.6,0 -2.26667,0 -0.53333,0 -1.06666,0 -1.46666,0.13333 -0.66667,0.26667 -1.46667,0.4 -2.13334,0.53333 -0.8,0.13334 -1.46666,0.53334 -2.13333,0.93334 -0.13333,0.13333 -0.26667,0.26666 -0.4,0.4 -0.93333,0.4 -2,0.8 -2.8,1.6 -0.8,0.26666 -1.33333,0.93333 -1.86667,1.6 -0.4,0 -0.66666,0.26666 -0.93333,0.53333 -0.4,0.4 -0.8,0.66667 -1.2,0.93333 -0.8,0.53334 -1.33333,1.46667 -1.86667,2.13334 -0.13333,0.13333 0,0.13333 -0.13333,0.26666 -0.66667,0.53334 -1.33333,1.06667 -1.6,1.86667 -0.66667,0.4 -1.33333,0.8 -1.73333,1.33333 0,0.13334 0,0.26667 0.13333,0.26667 l 0.93333,0.26667 c 0,0.13333 0.26667,0.26666 0.13334,0.4 -0.4,0.13333 -0.53334,-0.26667 -0.93334,-0.26667 -0.26666,0.13333 -0.4,0.4 -0.66666,0.4 -0.53334,0.26667 -0.93334,0.66667 -0.93334,1.2 l -0.4,0.13333 c -0.26666,0.8 -0.93333,1.46667 -1.6,2.13334 -0.13333,0.13333 -0.4,0.26666 -0.4,0.53333 -0.13333,0.4 -0.53333,0.8 -0.8,1.2 -0.53333,0.8 -1.06666,1.46667 -1.33333,2.4 -0.8,0.26667 -1.06667,0.93333 -1.2,1.73333 -0.53334,0.4 -0.66667,0.93334 -1.06667,1.46667 -0.66667,1.2 -1.46667,2.4 -2,3.73334 0,0.26666 -0.13333,0.4 -0.26667,0.53333 -0.8,0.93333 -1.2,1.86667 -1.73333,2.93333 -0.26667,0.66667 -0.53333,1.2 -0.8,1.86667 -0.4,0.53333 -0.4,1.33333 -0.8,1.86667 -0.13333,0.26666 0.26667,0.4 0.13333,0.66666 l -0.53333,0.4 c -0.53333,1.33334 -1.06667,2.53334 -1.73333,3.73334 -0.13334,0.26666 -0.26667,0.53333 -0.13334,0.93333 -0.53333,0.8 -0.93333,1.73333 -1.2,2.66667 l 0.13334,0.53333 c -0.26667,0.66667 -0.53334,1.2 -0.8,1.86667 l 0.13333,0.66666 c -0.13333,0.13334 -0.4,0.13334 -0.53333,0.4 -0.13334,0.4 0,0.93334 -0.26667,1.46667 -0.4,0.66667 -0.4,1.33333 0,2 -1.06667,0.53333 -1.33333,1.46667 -1.2,2.53333 0.13333,0.4 0.53333,0.26667 0.93333,0.4 0.13334,0.53334 -0.13333,0.93334 -0.4,1.2 0,-0.13333 0,-0.4 0,-0.66666 -0.13333,0 -0.26666,-0.13334 -0.4,-0.13334 -0.13333,0 -0.13333,0.13334 -0.26666,0.13334 -0.13334,0.13333 -0.26667,0.26666 -0.53334,0.26666 0.26667,0.8 -0.13333,1.33334 -0.13333,1.86667 0.26667,0.53333 0.93333,0.4 1.2,0.53333 0.13333,0.13334 0.26667,0.26667 0.13333,0.53334 -0.4,0.13333 -0.66666,-0.26667 -1.06666,-0.13334 -0.13334,0.13334 -0.53334,0.26667 -0.66667,0.53334 0,0.13333 0,0.26666 0,0.26666 0.13333,0.26667 0.66667,0.26667 0.53333,0.66667 0,0.26667 -0.26666,0 -0.4,0.13333 -0.26666,0.4 -0.26666,0.93334 -0.4,1.46667 0.26667,0.4 -0.26666,0.8 -0.13333,1.2 0,0.4 -0.4,0.8 -0.4,1.33333 0,0.66667 -0.26667,1.46667 0.13333,2.26667 -0.13333,0.4 -0.26666,0.93333 -0.4,1.33333 l 0.13334,0.8 c -0.13334,0.40001 -0.26667,0.80001 -0.13334,1.20001 0,0.13333 0.13334,0.26666 0,0.4 -0.13333,0.66666 0,1.46666 -0.13333,2.13333 0,0.66667 0,1.46667 0.4,2 -0.53333,0.66667 -0.4,1.2 0,1.73333 -0.26667,0.8 -0.13333,1.6 0.13333,2.4 0.13334,0.26667 0.26667,0.53334 0.26667,0.93334 0,0.13333 0.13333,0.26666 0.26667,0.26666 l -0.13334,0.53334 c 0,0.26666 0.26667,0.4 0.26667,0.8 0,0.8 0.4,1.73333 1.06667,2.4 0.13333,0.53333 0.13333,1.06666 0.66666,1.2 l 0.53334,-0.26667 c 0.26666,0.13333 0.53333,0.4 0.66666,0.66667 -0.4,0 -0.53333,0.13333 -0.66666,0.4 0,0.4 0.13333,0.66666 0.4,0.93333 0.8,0.53333 1.33333,1.33333 2,1.6 0.4,0.26667 0.4,0.66667 0.66666,0.93333 0.13334,0.13334 0.4,0.26667 0.53334,0.4 l 0.4,0.8 c 0.53333,0 0.93333,0.4 1.33333,0.8 h 0.4 c 0.4,0.66667 0.53333,0.66667 1.2,0.53334 v -0.4 c 0.26667,0 0.53333,0 0.66667,0.26666 0.26666,0.26667 0.53333,0.26667 0.8,0.4 0.53333,0 1.2,0.13334 1.73333,0 z m 16.93334,-84.66667 c -0.13334,0.13333 -0.13334,0 -0.13334,-0.13333 0,0 0,0 0.13334,0 v 0.13333 c 0,0 0,0 0,0 z m 14.53333,1.86667 c 0,-0.13334 -0.13333,-0.13334 -0.13333,-0.26667 0,0 0.13333,0 0.13333,0 0,0 0.13333,0 0.13333,0 -0.13333,0.13333 -0.13333,0.13333 -0.13333,0.26667 z m -0.26667,3.73333 c -0.13333,-0.26667 -0.13333,-0.4 0.26667,-0.53333 0,0.26666 -0.13333,0.4 -0.26667,0.53333 z m -22.53333,3.06667 c -0.13333,0 -0.13333,0 0,-0.13334 0,0 0,0.13334 0,0.13334 0,0 0,0 0,0 0,0 0,0 0,0 z m -0.93333,0.66666 c -0.26667,0.26667 -0.4,0.13334 -0.53334,0 z m -1.33334,2.13334 c -0.13333,0 -0.13333,0 -0.13333,-0.13334 0.13333,0 0.13333,0 0.13333,0 0,0 0,0 0,0.13334 0,0 0,0 0,0 z m -1.06666,1.73333 c -0.13334,0 -0.26667,-0.13333 -0.26667,-0.26667 0.26667,0 0.26667,0.13334 0.26667,0.26667 z m 23.6,1.46667 -0.4,-0.26667 c 0.4,-0.13333 0.4,0 0.4,0.26667 z m -24.4,-0.26667 h 0.26666 c -0.13333,0.13333 -0.13333,0 -0.26666,0 z m 20.13333,7.33334 c -0.13333,-0.13334 -0.13333,-0.26667 -0.13333,-0.4 h 0.53333 c -0.13333,0.13333 -0.13333,0.26666 -0.4,0.4 z m -29.2,9.06666 c 0,0 -0.13334,-0.13333 -0.13334,-0.13333 0.13334,-0.13333 0.13334,-0.13333 0.13334,0 0,0 0,0 0,0.13333 z m 23.33333,0.93334 c -0.26666,0.13333 -0.53333,-0.13334 -0.66666,-0.26667 0.26666,-0.13333 0.53333,0 0.66666,0.26667 z m -23.6,0.53333 c 0,-0.13333 0.13333,-0.13333 0.26667,-0.13333 0.13333,0.26666 0,0.26666 -0.26667,0.13333 z m 20.66667,2.4 c 0.13333,-0.26667 0.26667,-0.26667 0.4,-0.26667 l 0.13333,0.13334 c -0.13333,0.13333 -0.26666,0.13333 -0.53333,0.13333 z m -0.8,0.26667 c 0.13333,-0.26667 0.13333,-0.4 0.26667,-0.4 0.13333,0.26666 0.13333,0.4 -0.26667,0.4 z m -21.86667,1.33333 c -0.13333,-0.13333 -0.13333,-0.26667 -0.13333,-0.4 0.13333,-0.13333 0.26666,-0.13333 0.4,0 0,0.26667 -0.13334,0.4 -0.26667,0.4 z m 20.13334,0.53333 c 0,0 -0.13334,0 -0.13334,0 0,0 0,0 0,0 z m -2.4,3.06667 0.4,-0.26667 c 0,0.26667 -0.13334,0.4 -0.4,0.26667 z m -19.73334,2.8 c -0.13333,-0.26667 0,-0.53333 -0.13333,-0.8 0.26666,0.13333 0.4,0.26667 0.53333,0.53333 z m 17.06667,0 c -0.26667,0 -0.26667,-0.26667 -0.4,-0.4 0.13333,0 0.13333,0 0.26667,0 0.13333,0.13333 0.26666,0.13333 0.13333,0.4 z m -3.46667,1.73333 c 0,-0.13333 0.13334,0 0.13334,0 z m 32.13334,1.86667 c 0,0 0,0 0,0 v -0.13333 c 0,0 0,0 0,0.13333 z m -47.06667,0.66667 c 0,0 -0.13334,-0.13334 0,-0.13334 0,-0.13333 0.13333,-0.13333 0.13333,-0.13333 0,0.13333 0.13333,0.13333 0.13333,0.26667 z m -0.8,3.06666 c -0.26667,0 -0.4,-0.13333 -0.4,-0.26666 0.13333,-0.26667 0.4,-0.4 0.53333,-0.4 0,0.26666 0.13333,0.53333 -0.13333,0.66666 z m -0.4,3.46667 c -0.13334,-0.13333 -0.13334,-0.13333 -0.13334,-0.13333 0,-0.13334 0.13334,-0.13334 0.13334,0 0,0 0,0 0,0 0,0 0,0.13333 0,0.13333 z m -0.8,4.8 c 0,-0.13333 0,-0.13333 0,-0.13333 0,0 0,-0.13334 0,-0.13334 z m -0.13334,5.06667 c -0.13333,0 -0.13333,-0.13333 -0.13333,-0.26667 0,0 0.13333,-0.13333 0.13333,-0.13333 0.13334,0 0.13334,0.13333 0.13334,0.26667 0,0 0,0.13333 -0.13334,0.13333 z m 30.66667,1.2 h 0.26667 c -0.13333,0.13333 -0.13333,0.13333 -0.26667,0 z m 1.86667,4.8 c -0.13333,0 -0.26667,0 -0.13333,-0.26667 0.13333,0.13334 0.26666,0.13334 0.13333,0.26667 z m -32.53334,1.33333 c -0.26666,-0.26666 -0.13333,-0.53333 -0.13333,-0.8 0.26667,0.13334 0.26667,0.13334 0.13333,0.8 z m -0.26666,2 c 0.13333,-0.13333 0.13333,-0.26666 0.4,-0.4 0,0.26667 -0.26667,0.4 -0.4,0.4 z m 9.33333,11.33334 h -0.13333 c 0,0 0.13333,0 0.13333,0 0,0 0,0 0,0 z m 3.6,0.26666 c 0,0.13334 0,0.13334 0,0 z m 0,0.13334 v -0.13334 z"
         style=""
         id="path823" />
      <path
         d="m -544.78849,645.37696 c 0.4,-0.13334 0.8,-0.26667 1.2,-0.53334 1.2,-0.66666 2.13334,-1.46666 3.33334,-2 1.06666,-0.53333 2,-1.33333 2.53333,-2.4 0.53333,-0.4 1.06667,-0.66666 1.73333,-1.06666 l 0.13334,-1.06667 c 0.4,-0.4 0.8,0.13333 1.2,-0.4 0.8,-1.2 2,-2.26667 3.06666,-3.46667 0.93334,-1.2 1.86667,-2.53333 2.66667,-3.86666 1.06667,-1.46667 2,-3.06667 2.93333,-4.66667 0.13334,-0.4 0.4,-0.66667 0.53334,-1.06667 0.66666,-1.73333 1.46666,-3.46667 1.86666,-5.33333 0.13334,-0.26667 0.13334,-0.4 -0.13333,-0.66667 -0.4,-0.13333 -0.53333,0.26667 -0.8,0.53333 -0.4,0.26667 -0.66667,0.4 -1.06667,0.66667 -0.26666,0.26667 -0.66666,0.53333 -0.8,0.93333 -0.26666,0.53334 -0.66666,0.4 -0.93333,0.8 -0.26667,0.26667 -0.66667,0.53334 -0.66667,0.93334 0.13334,0.4 0.13334,0.66666 -0.26666,0.93333 l -0.66667,-0.13333 c -0.66667,0.53333 -1.33333,1.06666 -1.86667,1.73333 0,0.13333 0,0.26667 -0.13333,0.26667 0,0.26666 0.53333,0.4 0.26667,0.8 -0.4,0 -0.66667,-0.4 -0.93334,-0.4 -0.93333,0.26666 -1.33333,1.2 -2.13333,1.6 -0.8,0.53333 -1.46667,1.06666 -1.86667,2 -0.8,0 -1.46666,0.53333 -2,1.06667 -0.53333,0.4 -0.93333,0.8 -1.46666,1.06666 -0.4,0.13334 -0.53334,0.53334 -0.53334,0.93334 -0.13333,0 -0.4,0 -0.53333,0.13333 -1.2,0.8 -2.4,1.6 -3.46667,2.53333 -0.13333,0 -0.26666,0.13334 -0.26666,0.13334 -1.06667,1.2 -1.06667,1.2 -2.93334,1.86666 0,-0.13333 -0.13333,-0.4 -0.13333,-0.53333 -0.13333,-2 0.4,-3.86667 0.53333,-5.73333 0,-0.53334 0,-1.20001 0.26667,-1.73334 0.26667,-0.4 0.4,-0.93333 0.4,-1.46667 0.53333,-1.73333 1.06667,-3.6 1.46667,-5.33333 0.66666,-2.93333 1.86666,-5.6 2.26666,-8.53333 0.13334,-0.93334 0.26667,-2 0.66667,-2.66667 0.26667,-0.4 0.4,-0.66667 0.53333,-0.93333 0,0 0,0 0,0 v 0 c 0.26667,-0.8 0.53334,-1.6 0.8,-2.4 0,0 0,-0.13334 0,-0.13334 l 0.13334,-0.26666 c 0.13333,-0.26667 0.4,-0.53334 0.4,-0.8 0.13333,-0.53334 0.26666,-0.93334 0.53333,-1.33334 0,0 0,-0.13333 0,-0.26666 v 0 c 0.66667,-0.66667 0.66667,-1.46667 0.93333,-2.13334 l -0.26666,-0.53333 c 0.13333,-0.4 0.26666,-0.66667 0.4,-0.8 0.13333,-0.26667 0.26666,-0.4 0.26666,-0.66667 0.26667,-0.4 0.4,-0.8 0.53334,-1.33333 0.26666,-1.06667 0.66666,-2.13333 1.33333,-3.06667 0.13333,-0.13333 0.26667,-0.4 0.26667,-0.53333 0.13333,-0.93333 0.26666,-1.73333 0.4,-2.66667 0,-0.26666 0.13333,-0.53333 0.26666,-0.8 0.4,-0.8 0.93334,-1.6 1.06667,-2.4 0,-0.8 0.13333,-1.46666 0.66667,-2 0.53333,-2.26667 1.6,-4.4 2,-6.8 0.13333,-0.93333 0.26666,-1.73333 0.93333,-2.53333 0.26667,-0.4 0.53333,-0.93334 0.53333,-1.46667 0.4,-1.6 1.06667,-2.93333 1.6,-4.26667 l -0.13333,-2.13333 c -1.06667,-1.2 -2.13333,-1.86667 -3.73333,-1.86667 -0.93334,0.66667 -1.06667,1.73334 -1.2,2.8 -0.26667,0.26667 -0.53334,0.53334 -0.66667,0.8 -0.13333,0.13334 -0.26667,0.4 -0.26667,0.66667 -0.4,0.4 -0.53333,1.86667 -0.8,2.26667 -0.93333,0.53333 -0.8,1.33333 -0.53333,2.13333 -0.4,0.4 -0.8,0.66667 -1.06667,0.93333 -0.26666,0.26667 -0.13333,0.4 0.13334,0.66667 0.26666,-0.13333 -1.06667,1.6 -0.66667,2.13333 0.26667,0.13334 0.53333,-0.13333 0.66667,0.4 -0.26667,0 -0.53334,0.13334 -0.8,0.26667 -0.66667,1.06667 -1.06667,1.06667 -1.06667,2.93333 -1.06667,1.33334 -0.66667,3.20001 -1.46667,4.53334 0,0 0,0.13333 0.13334,0.13333 l -0.4,0.4 c -0.13334,0.53334 -0.4,0.93334 -0.66667,1.46667 -0.13333,0.26667 -0.26667,0.53333 -0.4,0.66667 -0.13333,0.93333 -0.4,1.86666 -0.8,2.66666 -0.4,0.93334 -0.4,2 -0.93333,2.93334 -0.13334,0.26666 -0.26667,0.53333 -0.26667,0.8 -0.13333,0.13333 -0.26667,0.26666 -0.26667,0.53333 0,0 0,0.13333 0,0.13333 0,0.13334 -0.13333,0.4 -0.13333,0.53334 -0.13333,0 -0.13333,0 -0.13333,0.13333 0,0.13333 -0.13334,0.13333 -0.13334,0.26667 0,0 0,0.13333 0,0.13333 0,0 0,0 0,0 -0.13333,0.26667 -0.26666,0.4 -0.4,0.66667 0,0.13333 0,0.26666 0,0.26666 -0.13333,0.26667 -0.4,0.4 -0.4,0.66667 -0.13333,0.4 -0.13333,0.93333 -0.26666,1.33333 -0.13334,0.13334 -0.13334,0.26667 -0.26667,0.26667 l 0.26667,0.66667 c -0.13334,0.13333 -0.26667,0.8 -0.4,1.46666 -0.13334,0.13334 -0.26667,0.26667 -0.26667,0.4 -0.13333,0.26667 -0.13333,0.4 -0.13333,0.66667 -0.13334,0.53333 -0.26667,0.93333 -0.4,1.06667 v 0.13333 c -0.13334,0.13333 -0.13334,0.53333 -0.13334,1.06667 0,0.13333 0,0.26666 0,0.4 0.26667,0.4 0.26667,0.66666 -0.4,0.93333 -1.06666,0.13333 -1.06666,1.2 -1.33333,2 -0.13333,0.8 0.93333,0.66667 1.2,1.06667 -0.4,0.4 -1.06667,0 -1.33333,0.53333 -0.4,0.93333 -1.2,1.6 -1.33334,2.66667 -0.13333,0.8 -0.53333,1.73333 -0.8,2.66666 -0.53333,1.06667 -0.8,2.4 -0.53333,3.6 -0.26667,0 -0.53333,0.13334 -0.53333,0.4 0.26666,1.6 -0.53334,3.06667 -0.93334,4.66667 -0.26666,1.06667 -0.4,2.13334 -0.66666,3.2 -0.4,1.2 -0.8,2.66667 -0.53334,4 0,0 0,0 0.13334,0.13334 -0.13334,0 -0.13334,0 -0.13334,0.13333 l 0.26667,0.26667 c 0.4,-0.13334 0.66667,-0.26667 0.93333,-0.4 0.26667,0 0.53334,0 0.93334,0 0,0 0,0 0.13333,0 -0.13333,0.66666 -0.66667,0.13333 -0.93333,0.4 -0.26667,0.26666 -0.8,0.4 -0.8,0.93333 l 1.33333,1.46667 c -0.13333,0.13333 -0.4,0.26666 -0.53333,0.66666 0.13333,0.93334 1.2,0.93334 1.73333,1.73334 -0.26667,1.2 0.8,2.13333 0.8,3.33333 0.53333,0.53333 0.8,1.2 1.46667,1.46667 1.06666,-0.4 2,-0.4 3.06666,0.13333 z m 11.46667,-68.80001 c 0,0 0,-0.13333 0,-0.13333 0,0 0,0 0,0 0.13333,0 0.13333,0 0.13333,0.13333 0,0 -0.13333,0 -0.13333,0 z m -0.93333,1.6 c -0.13334,0 -0.26667,-0.13333 -0.26667,-0.26667 0.13333,-0.13333 0.26667,0 0.26667,0.26667 z m -0.93334,3.2 c -0.4,-0.13333 -0.53333,-0.4 -0.8,-0.66667 0.26667,-0.26666 0.53334,-0.26666 0.8,-0.13333 0.13334,0.26667 0,0.53333 0,0.8 z m 0.4,1.06667 c -0.4,0 -0.26666,-0.4 -0.26666,-0.53334 0.13333,0.13334 0.26666,0.26667 0.26666,0.53334 z m -0.93333,0.8 c -0.26667,0.13333 -0.4,0 -0.53333,-0.26667 0,-0.26667 0.13333,-0.4 0.4,-0.4 0.26666,0.13333 0.13333,0.4 0.13333,0.66667 z m -0.66667,1.6 c -0.26666,0.13333 -0.66666,0.13333 -0.93333,-0.13334 0.13333,-0.4 0.53333,-0.13333 0.8,-0.4 0.13333,0.13334 0.26667,0.26667 0.26667,0.4 0,0 -0.13334,0.13334 -0.13334,0.13334 z m -0.13333,0.93333 c 0,0 -0.13333,0 -0.13333,0 -0.13334,-0.13333 -0.13334,-0.26667 0,-0.4 0.26666,0 0.4,0.13333 0.26666,0.4 0,0 -0.13333,0 -0.13333,0 z m -0.8,1.6 c -0.13333,0.13334 -0.13333,0 -0.26667,-0.13333 0.13334,-0.13333 0.26667,-0.13333 0.26667,0.13333 z m -1.06667,2.4 c -0.4,-0.26666 -0.4,-0.26666 0.13334,-0.66666 0.13333,0.26666 0.13333,0.53333 -0.13334,0.66666 z m -1.33333,2.8 v -0.13333 l 0.13333,0.13333 h -0.13333 z m -1.33333,2.4 c 0,0 0,0 0,0 0,-0.66666 0.4,-0.8 0.8,-0.93333 0.26666,0 0.26666,0.13333 0.26666,0.4 -0.13333,0.13333 -0.13333,0.13333 -0.26666,0.26667 -0.26667,0 -0.53334,0 -0.8,0.26666 z m -8.4,32.93334 c -0.26667,-0.13334 -0.66667,-0.13334 -0.4,-0.66667 0.4,0.13333 0.4,0.4 0.4,0.66667 z m -1.6,3.2 c -0.13334,-0.13333 -0.26667,-0.26667 -0.4,-0.26667 0,-0.13333 0,-0.26666 0,-0.4 0.26666,-0.4 0.4,-0.8 0.66666,-1.2 0,0.53333 0.13334,0.93334 0.26667,1.33334 0,0.13333 0.13333,0.26666 0.13333,0.4 -0.26666,0.13333 -0.53333,0.13333 -0.66666,0 z m -1.06667,1.6 c -0.26667,0.13333 -0.4,0 -0.66667,-0.13333 v 0 c 0,-0.26667 0.13334,-0.4 0.4,-0.53334 0,0 0.13334,0.13334 0.13334,0.13334 0.13333,0.13333 0.13333,0.26666 0.13333,0.53333 z"
         style=""
         id="path825" />
      <path
         d="m -500.00431,621.91029 c -0.26667,-0.13334 -0.53334,0.13333 -0.93334,0.4 -0.26666,0.13333 -0.66666,0.4 -0.93333,0.53333 -0.4,0.26667 -0.8,0.4 -1.06667,0.8 -0.26666,0.4 -0.66666,0.4 -0.93333,0.66667 -0.4,0.26666 -0.66667,0.4 -0.93333,0.8 0.26666,0.4 0.13333,0.8 -0.26667,0.93333 -0.26667,-0.13333 -0.53333,-0.13333 -0.66667,-0.26667 -0.8,0.53334 -1.46666,0.93334 -2.13333,1.46667 0,0.13333 0,0.26667 -0.13333,0.26667 0,0.26666 0.4,0.53333 0.13333,0.8 -0.4,-0.13334 -0.53333,-0.4 -0.93333,-0.4 -0.93334,0.13333 -1.46667,0.93333 -2.26667,1.2 -0.8,0.4 -1.6,0.93333 -2,1.73333 -0.93334,-0.13333 -1.6,0.26667 -2.26667,0.66667 -0.53333,0.4 -0.93333,0.8 -1.6,0.93333 -0.4,0.13334 -0.66667,0.4 -0.66667,0.93334 h -0.4 c -1.33333,0.66666 -2.66666,1.33333 -3.86666,2 -0.13334,0 -0.26667,0.13333 -0.26667,0.13333 -1.2,1.06667 -1.2,1.06667 -3.2,1.46667 h -0.53333 c -0.13334,-0.13334 -0.26667,-0.4 -0.26667,-0.53334 -0.13333,-1.73333 0,-5.6 0.13333,-7.33333 l 0.4,-0.4 c 0.8,-0.93334 2.13334,-1.33334 2.93334,-2.26667 1.06666,-0.53333 1.73333,-1.33333 2.4,-2 0.66666,-0.53333 1.2,-1.2 2,-1.46667 0,-0.13333 0.13333,-0.26666 0.26666,-0.26666 0,-0.26667 0.13334,-0.53334 0.13334,-0.66667 1.06666,-1.2 2.53333,-1.86667 2.66666,-3.2 0.4,-0.26667 0.66667,-0.4 0.8,-0.8 0.13334,-0.13333 0.13334,-0.4 0.26667,-0.53333 0.93333,-0.93334 1.46667,-2.13334 2.13334,-3.33334 0.26666,-0.53333 0.13333,-1.2 0.4,-1.73333 0.53333,-0.93333 0.8,-2.13333 1.06666,-3.2 -0.4,-1.33333 -0.4,-1.33333 -0.13333,-2.53333 -0.53333,-0.8 -0.93333,-1.6 -1.33333,-2.53334 -1.33334,-0.53333 -2.53334,-1.2 -3.60001,-1.86666 h -2 c -0.13333,0.13333 -0.4,0.4 -0.66666,0.4 -1.2,0.26666 -1.86667,0.93333 -2.53334,1.73333 0.13334,0.26667 0.4,0.4 0.8,0.53333 0.26667,-0.13333 0.53334,-0.26666 0.93334,-0.53333 0,0.4 0.13333,0.8 0,0.93333 -1.06667,0.53334 -1.6,-0.4 -2.4,-0.4 -0.26667,0 -0.53334,0.13334 -0.66667,0.4 0,0.8 0.93333,0.66667 1.2,1.2 0,0.26667 -0.13333,0.4 -0.26667,0.66667 -0.53333,-0.26667 -0.66666,-0.93333 -1.33333,-1.06667 -0.4,0.26667 -0.8,0.4 -0.93333,0.93334 0,0.26666 0.26666,0.53333 0.4,0.8 0.26666,-0.13334 0.26666,-0.4 0.53333,-0.66667 0.13333,0.4 0.13333,0.8 0,1.06667 -0.4,0.13333 -0.53333,-0.13334 -0.53333,-0.4 -0.4,0.13333 -0.93334,-0.13334 -1.33334,0.26666 0,0.53334 -0.13333,1.06667 -0.13333,1.73334 -0.4,0 -0.8,0.13333 -1.2,0.26666 -0.26667,0.53334 0.13333,1.2 0.13333,1.86667 -0.26666,0 -0.66666,0 -0.66666,0.4 0,0.26667 0.53333,0.4 0.4,0.8 -0.13334,0 -0.13334,0.13333 -0.26667,0.13333 -0.66667,-0.13333 -0.26667,-1.06666 -1.06667,-1.2 -0.13333,0.93334 -0.13333,0.93334 0.26667,1.73334 0.13333,0 0.26667,0 0.53333,0.13333 -0.26666,0.13333 -0.4,0 -0.53333,-0.13333 -0.26667,0 -0.53333,0.13333 -0.53333,0.4 0,0.26666 0.13333,0.53333 0.13333,0.8 -0.13333,-0.13334 -0.4,-0.13334 -0.53333,-0.26667 -0.4,0.13333 -0.53334,0.4 -0.53334,0.66667 0.26667,0.4 0.4,0.8 0.66667,1.2 -0.4,0.4 -0.13333,0.93333 -0.53333,1.33333 -0.26667,-0.53333 -0.13334,-1.06667 -0.66667,-1.33333 -0.13333,0 -0.26667,0 -0.4,-0.13334 l -0.4,0.4 c -0.13333,0.4 0.26667,0.53334 0.26667,0.93334 -0.26667,0.26666 -0.8,0.26666 -0.8,0.8 1.06666,0.93333 1.06666,0.93333 1.06666,1.2 -0.13333,0.13333 -0.4,0.13333 -0.66666,0.13333 -0.13334,-0.13333 -0.26667,-0.26667 -0.53334,-0.4 -0.26666,0.53333 -0.53333,0.93333 -0.8,1.46667 0.13334,0.26666 0.13334,0.53333 0.26667,0.8 -0.4,0.26666 -0.66667,0.8 -0.4,1.33333 0.26667,0.4 0.93333,0.53333 1.2,0.93333 0,0.26667 -0.13333,0.26667 -0.4,0.4 -0.13333,-0.13333 -0.13333,-0.26666 -0.26667,-0.4 h -0.13333 c -0.26667,0.4 -0.13333,0.66667 0,1.06667 0.26667,0.26667 0.26667,0.26667 0,0.53333 v 0.13334 c -0.13333,0 -0.26667,0.13333 -0.26667,0.13333 l -0.13333,0.13333 c -0.66667,0.53334 -1.6,0.93334 -1.86667,1.46667 -0.13333,0.66667 0.53334,0.93333 0.4,1.33333 -0.13333,0 0.13334,0.13334 0.4,0.4 -0.26666,1.06667 -0.53333,2.26667 -0.26666,3.60001 v 0.13333 c 0.13333,0.13333 0.13333,0.26667 0.26666,0.4 0.4,-0.26667 0.66667,-0.4 0.93334,-0.53333 0.26666,0 0.53333,0 0.8,0 h 0.13333 c -0.13333,0.66666 -0.66667,0.26666 -0.93333,0.4 -0.26667,0.4 -0.66667,0.4 -0.8,0.93333 0.53333,0.53333 1.33333,2.93333 1.73333,3.6 0,0.93333 1.06667,1.06667 1.46667,1.86667 -0.4,1.2 0.53333,2.26666 0.26666,3.46666 0.53334,0.53334 0.66667,1.2 1.33334,1.6 1.06666,-0.26666 2.13333,-0.13333 3.06666,0.53334 l 1.2,-0.4 c 1.2,-0.53334 2.4,-1.2 3.6,-1.6 1.06667,-0.4 2.13334,-0.93334 2.8,-2 0.66667,-0.26667 1.2,-0.53334 1.86667,-0.93334 0.13333,-0.26666 0.26667,-0.66666 0.4,-0.93333 0.4,-0.26667 0.66667,0.26667 1.2,-0.26667 0.8,-0.93333 2.26667,-1.86666 3.46667,-3.06666 1.06667,-1.06667 2.13333,-2.13334 3.2,-3.33334 1.2,-1.33333 2.26667,-2.8 3.46667,-4.26667 0.26666,-0.4 0.53333,-0.66666 0.66666,-0.93333 0.93334,-1.6 2,-3.33333 2.66667,-5.06667 0.13333,-0.26666 0.13333,-0.4 -0.13333,-0.66666 z m -25.06667,-1.06667 c 0.53333,-0.8 0.93333,-1.46667 1.2,-2.26667 0,-0.53333 0.26666,-1.06666 0.53333,-1.33333 0.53333,-0.8 0.8,-1.6 1.46667,-2.26667 0.13333,-0.26666 0.26666,-0.53333 0.13333,-0.93333 0.53333,-0.4 0.8,-0.66667 1.2,-1.06667 0.66667,-1.06666 1.6,-2.13333 2.4,-3.06666 0.4,-0.53334 0.93333,-0.8 1.33333,-1.2 0.26667,-0.13334 0.66667,-0.13334 0.93334,-0.26667 0.26666,0.13333 0.26666,0.26667 0.26666,0.53333 0,0.26667 -0.53333,0.4 -0.66666,0.66667 0,0.4 -0.26667,0.66667 -0.4,0.93333 0.26666,0.4 0.66666,0.26667 1.06666,0.26667 0,0.26667 -0.4,0.13333 -0.53333,0.26667 -0.13333,0.13333 -0.26667,0.13333 -0.53333,0.26666 -0.13334,0.4 -0.13334,0.66667 -0.26667,0.93334 -0.26667,0.4 -0.66667,0.13333 -0.8,0.26666 -0.4,0.26667 -0.53333,0.66667 -0.66667,0.93334 0,0.26666 0,0.66666 -0.13333,0.93333 -0.26667,0.26667 -0.66667,0.4 -0.93333,0.8 -0.26667,0.26667 -0.4,0.66667 -0.66667,1.06667 -0.26667,0.13333 -0.66667,0.4 -1.06667,0.53333 -0.13333,0.26667 0,0.4 0.13334,0.66667 -0.26667,0 -0.53334,0.13333 -0.66667,0.26666 -0.26667,0.13334 -0.26667,0.4 -0.26667,0.66667 l 0.66667,0.66667 c -0.13333,0.13333 -0.26667,0.26666 -0.4,0.26666 -0.4,0 -0.66667,-0.53333 -1.06667,-0.4 -0.53333,0.4 -0.53333,1.2 -1.06666,1.46667 -0.13334,0.4 0.4,0.66667 0.26666,1.06667 -0.26666,0.13333 -0.4,-0.26667 -0.66666,-0.26667 -0.26667,-0.13333 -0.53334,-0.13333 -0.8,-0.13333 z m 7.86666,-6.26667 c -0.4,-0.13333 -0.13333,-0.13333 0,-0.26666 h 0.13334 c 0.13333,0.13333 0,0.26666 -0.13334,0.26666 z m -1.33333,2.13334 h -0.13333 c 0,0 0,-0.13334 0,-0.13334 h 0.13333 c 0.13333,0 0.13333,0 0,0.13334 z m -11.06667,5.46666 c -0.13333,-0.13333 -0.26666,-0.26666 -0.26666,-0.4 0.4,-0.13333 0.53333,0 0.26666,0.4 z m 4.53334,0 c 0.4,0.13334 0.4,0.4 0.26666,0.8 -0.4,-0.26666 -0.66666,-0.4 -0.66666,-0.66666 0.13333,-0.13334 0.26666,-0.26667 0.4,-0.13334 z m 20.13333,7.2 c -0.13333,0.13334 -0.26666,0.13334 -0.4,0.26667 -0.4,-0.13333 -0.66666,-0.26667 -0.8,-0.66667 0,-0.4 0.26667,-0.53333 0.66667,-0.53333 0.13333,0 0.4,0.13333 0.53333,0.26667 z m -26.8,0.93334 c -0.26667,0.13333 -0.4,0 -0.53333,-0.13333 0,-0.13334 0,-0.40001 0.26666,-0.53334 l 0.13334,0.13333 c 0.26666,0.13334 0.26666,0.40001 0.13333,0.53334 z"
         style=""
         id="path827" />
      <path
         d="m -460.65348,618.71029 c -0.4,0 -0.66666,0.4 -0.93333,0.53333 -0.26667,0.26667 -0.66667,0.53333 -0.93333,0.8 -0.4,0.26667 -0.8,0.53333 -0.93334,0.93333 -0.13333,0.4 -0.66666,0.4 -0.93333,0.66667 -0.13333,0.26667 -0.53333,0.53333 -0.66667,0.93333 0.26667,0.4 0.26667,0.8 -0.26666,0.93334 h -0.53334 c -0.8,0.4 -1.33333,0.93333 -1.86666,1.73333 -0.13334,0 -0.13334,0.13333 -0.13334,0.26667 0,0.26666 0.4,0.4 0.13334,0.66666 -0.26667,0 -0.53334,-0.4 -0.93334,-0.26666 -0.93333,0.26666 -1.33333,1.2 -2.13333,1.6 -0.8,0.4 -1.33333,1.06666 -1.73333,1.86666 -0.93334,0 -1.6,0.53334 -2.13334,1.06667 -0.4,0.4 -0.8,0.8 -1.46666,1.06667 -0.26667,0.26667 -0.53334,0.53333 -0.53334,1.06667 h -0.4 c -1.2,0.93333 -2.4,1.73333 -3.6,2.53333 l -0.26667,0.26667 c -1.06666,1.06666 -1.06666,1.06666 -2.93333,1.73333 0,-0.13333 0,-0.26667 -0.13333,-0.4 -0.13334,-2 0.4,-3.86667 0.66666,-5.86667 0,-0.53333 0,-1.2 0.26667,-1.6 0.13333,-0.53333 0.26667,-0.93333 0.4,-1.46667 0.53333,-1.86666 0.93333,-3.6 1.33333,-5.46666 0.66667,-2.8 1.86667,-5.46667 2.26667,-8.4 0.13333,-0.93334 0.4,-2 0.8,-2.8 0.93334,-1.6 1.2,-3.33334 1.73334,-5.06667 0.26666,-0.8 -0.8,-1.2 -1.33334,-1.46667 -0.93333,-0.53333 -1.6,-1.33333 -2.8,-1.06666 -0.13333,0 -0.26667,0.13333 -0.26667,0.26666 -0.53333,0.8 -1.06666,1.6 -1.46666,2.4 -0.13334,0.26667 -0.13334,0.8 0.4,0.93334 0.26666,0.13333 0.66666,-0.13334 0.66666,0.26666 -0.66666,0 -1.33333,0 -2,-0.26666 -0.4,0.4 -0.93333,0.8 -1.46666,0.8 -0.13334,-0.13334 -0.26667,-0.26667 -0.4,-0.53334 0,-0.53333 0,-1.06666 -0.53334,-1.6 -0.26666,-0.13333 -0.8,-0.4 -1.06666,-0.66666 -1.2,0.13333 -2.26667,0.26666 -3.33334,0 -1.2,0 -2.13333,1.33333 -3.33333,1.73333 -0.8,0.8 -1.6,1.6 -2.4,2.26667 -0.13333,0.53333 -0.13333,0.93333 0,1.33333 0,0.13333 -0.13333,0.26667 -0.26667,0.4 -0.26666,-0.13333 0,-0.8 -0.53333,-0.8 -0.13333,0.26667 -0.4,0.53333 -0.8,0.8 0,0.4 -0.4,0.66667 -0.4,1.2 0,0.26667 0.26667,0.4 0,0.66667 -0.26667,0 -0.53333,-0.4 -0.8,-0.26667 -0.26667,0.13333 -0.53333,0.26667 -0.66667,0.53333 -0.13333,0.4 -0.13333,0.66667 -0.26666,1.06667 -0.53334,0.13333 -0.8,0.66667 -1.2,1.06667 -0.13334,0.26666 -0.13334,0.4 -0.26667,0.66666 -0.8,0.4 -1.06667,1.6 -1.6,2.13334 -0.13333,0.4 -0.13333,0.8 -0.13333,1.06666 0.13333,0.13334 0.26666,0.13334 0.4,0.13334 -0.26667,0.26666 -0.4,0.13333 -0.4,-0.13334 h -0.4 c -0.26667,0.4 -0.26667,0.93334 -0.8,1.2 -0.4,0.13334 -0.26667,0.8 -0.66667,1.06667 -0.26667,0.4 -0.53333,0.8 -0.66667,1.2 0.13334,0.26667 0.26667,0.4 0.4,0.4 0.13334,-0.13333 0.26667,-0.26667 0.4,-0.13333 -0.13333,0.26666 -0.26666,0.13333 -0.4,0.13333 -0.13333,0.4 -0.4,0.53333 -0.66666,0.66667 -0.4,0 -0.66667,0.26666 -0.93334,0.93333 0.26667,0.4 -0.26666,1.06667 -0.13333,1.73333 0.26667,0 0.53333,0.26667 0.8,0.13334 0.13333,0.4 0,0.66666 -0.13333,0.93333 l -0.8,-0.4 c -0.26667,0.4 -0.66667,0.4 -0.93334,0.8 -0.26666,0.8 -0.53333,1.6 -0.93333,2.53334 0.53333,-0.13334 0.66667,0.53333 0.8,0.93333 -0.26667,0.4 -0.53333,-0.4 -0.93333,0.13333 -0.13334,0.26667 -0.26667,0.66667 0,1.06667 0.4,0.13333 0.66666,-0.26667 1.06666,-0.4 0.13334,0 0.26667,0.13333 0.13334,0.4 -0.66667,0.4 -1.46667,0.8 -1.86667,1.86667 -0.4,0.93333 -0.26667,1.86666 0,2.8 0.4,0.66666 1.33333,0.66666 1.73333,1.6 0,0.4 0.26667,0.93333 0.4,1.46666 0.13334,0.53334 0,1.06667 0,1.6 0.53334,0.4 0.93334,0.8 1.33334,1.2 0.26666,0 0.4,-0.53333 0.66666,-0.53333 0.53334,0 0.8,0.53333 1.33334,0.26667 0.26666,-0.26667 0.66666,-0.53334 0.93333,-0.8 0.4,-0.13334 0.66667,0 1.2,-0.4 0.53333,-0.53334 1.06667,-1.33334 1.86667,-1.86667 0.4,-0.26667 0.66666,-0.53333 0.8,-0.93333 0,-0.13334 0.13333,-0.13334 0.26666,-0.26667 0.26667,0.13333 0.53334,0 0.8,-0.26667 0.53334,-0.8 1.2,-1.73333 1.73334,-2.53333 0.26666,-0.13333 0.53333,-0.26667 0.8,-0.26667 0,-0.26666 0,-0.53333 0.13333,-0.8 0.26667,-0.13333 0.53333,-0.4 0.53333,-0.93333 0.53334,-0.26667 0.93334,-0.53333 1.2,-0.8 0.53334,-0.93333 1.06667,-1.73333 1.86667,-2.4 0.13333,-0.26667 0.26667,-0.53334 0.4,-0.66667 0.53333,-1.06667 1.2,-2 2,-2.66667 0.13333,-0.4 0.26667,-0.66666 0.4,-1.06666 0.26667,-0.26667 0.66667,-0.53334 0.93333,-0.93334 -0.26666,0.93334 -0.66666,2 -0.93333,2.93334 -0.26667,1.06666 -0.26667,2.13333 -0.66667,3.2 -0.4,1.33333 -0.66666,2.66667 -0.4,4.13333 v 0.13334 c 0.13334,0.13333 0.13334,0.26666 0.26667,0.4 0.26667,-0.13334 0.66667,-0.4 0.93333,-0.4 0.26667,0 0.53334,-0.13334 0.8,-0.13334 0.13334,0 0.13334,0.13334 0.13334,0.13334 -0.13334,0.66666 -0.66667,0.13333 -0.93334,0.4 -0.26666,0.26666 -0.66666,0.4 -0.8,0.8 0.53334,0.53333 0.93334,1.06666 1.46667,1.6 -0.13333,0.13333 -0.53333,0.26666 -0.53333,0.53333 0,0.93333 1.06666,1.06667 1.6,1.73333 -0.26667,1.2 0.93333,2.13334 0.8,3.33334 0.53333,0.53333 0.93333,1.2 1.6,1.6 0.93333,-0.53334 2,-0.53334 3.06666,0 0.4,-0.26667 0.8,-0.4 1.2,-0.66667 1.06667,-0.53333 2.13334,-1.33333 3.20001,-2 1.06666,-0.53333 2,-1.2 2.53333,-2.26667 0.66667,-0.4 1.2,-0.8 1.73333,-1.2 0.13334,-0.4 0.13334,-0.8 0.26667,-1.06666 0.4,-0.26667 0.66667,0.13333 1.2,-0.4 0.66667,-1.06667 1.86667,-2.13334 2.93333,-3.46667 1.06667,-1.2 1.86667,-2.53333 2.8,-3.73333 1.06667,-1.60001 1.86667,-3.20001 2.8,-4.80001 0.26667,-0.26666 0.53334,-0.66666 0.66667,-0.93333 0.66667,-1.86667 1.33333,-3.6 1.86667,-5.46667 0,-0.13333 0.13333,-0.4 -0.13334,-0.66666 z m -30.66667,-11.73334 c 0,0 0,0.13334 0,0.13334 v 0.13333 c 0,0 0,-0.13333 -0.13333,-0.13333 z m 3.86667,4.53334 c -0.26667,0.4 -0.13333,1.06666 -0.53333,1.46666 -0.4,0.26667 -0.4,0.8 -0.53334,1.33334 -0.26666,0.13333 -0.4,0.26666 -0.66666,0.53333 -0.26667,0.8 -0.8,1.33333 -1.33334,2 -0.66666,1.06667 -1.6,2 -2,3.33333 -0.13333,0.4 -0.53333,0.53334 -0.53333,0.93334 0,0.26666 0.13333,0.4 0.4,0.53333 0.13333,0 0.26667,0 0.4,0.4 -0.53333,0.4 -0.8,-0.26667 -1.2,-0.13333 -0.93333,0.26666 -1.2,1.46666 -1.86667,2.13333 l -0.4,1.2 c -0.26666,0.13333 -0.4,-0.13333 -0.66666,0.13333 -0.66667,0.8 -1.33334,1.73334 -2,2.8 -0.66667,0.53334 -1.33334,1.46667 -2,2.26667 -0.4,0.53334 -0.93334,1.06667 -1.33334,1.46667 -0.4,0.26667 -0.8,0.66667 -1.2,1.06667 -0.26666,0.4 -0.53333,0.66666 -0.93333,0.93333 -0.13333,-0.26667 -0.13333,-0.53333 0,-0.8 0.13333,-0.53333 0.4,-1.2 0.66667,-1.73333 0.4,-0.8 0.66666,-1.60001 0.8,-2.53334 1.06666,-1.46667 2,-3.2 2.66666,-5.2 0.4,-0.4 0.8,-1.06667 1.2,-1.73333 0.66667,-1.06667 1.2,-2.26667 2,-3.06667 0.26667,-0.26667 0.4,-0.53333 0.53334,-0.8 0.4,-0.66667 0.8,-1.2 1.2,-1.86667 0.66666,-0.93333 1.33333,-2 2.26666,-2.66666 0.8,-1.06667 1.86667,-1.86667 2.66667,-2.93334 0.26667,0.13334 0.4,0.13334 0.66667,0.13334 0.26666,-0.13334 0.4,-0.4 0.53333,-0.66667 l 1.2,-0.4 c 0.26667,0.26667 0.66667,0.53333 0.8,0.93333 -0.13333,0.4 -0.53333,0.66667 -0.8,0.93334 z m -0.66667,4.4 c 0,-0.13334 0.13334,-0.26667 0.13334,-0.26667 0.13333,0 0.13333,0.13333 0.13333,0.26667 -0.13333,0.13333 -0.26667,0.13333 -0.26667,0 z m -12.26666,1.73333 c -0.26667,0 -0.53334,0.13333 -0.93334,0.26667 0.4,-0.8 0.66667,-0.4 0.93334,-0.26667 z m 9.2,2.4 c -0.13334,-0.13333 -0.13334,-0.26667 0,-0.53333 0,0 0.13333,0 0.13333,0.13333 0,0.13333 0,0.26667 -0.13333,0.4 z m -0.53334,1.33333 c 0.26667,-0.13333 0.4,-0.13333 0.4,0.13334 -0.13333,0.13333 -0.26666,0.13333 -0.4,-0.13334 z m -13.2,4.66667 c 0,-0.4 0.26667,-0.4 0.4,-0.53333 -0.13333,0.53333 -0.13333,0.53333 -0.4,0.53333 z m 9.06667,1.86667 c -0.13333,0.13333 -0.26667,0.13333 -0.4,0 -0.13333,-0.26667 -0.26667,-0.53334 -0.26667,-0.8 0.13334,-0.26667 0.26667,-0.26667 0.66667,-0.26667 -0.13333,0.13333 -0.26667,0.26667 -0.26667,0.4 0,0.4 0.26667,0.4 0.26667,0.66667 z m 9.06667,-0.66667 c 0.26666,0 0.26666,0.26667 0.4,0.53333 -0.26667,0 -0.66667,0 -0.4,-0.53333 z m -1.33334,3.73334 c -0.13333,-0.13334 -0.26666,-0.13334 -0.4,-0.26667 0,-0.13333 0,-0.26667 0,-0.26667 l 0.8,-1.2 c -0.13333,0.4 0.13334,0.8 0.13334,1.2 0.13333,0.13334 0.13333,0.26667 0.13333,0.4 -0.26667,0.26667 -0.4,0.26667 -0.66667,0.13334 z m -1.06666,1.6 c -0.26667,0.26666 -0.4,0 -0.53334,0 0,-0.26667 0,-0.53334 0.26667,-0.53334 h 0.13333 c 0.26667,0.13334 0.13334,0.4 0.13334,0.53334 z m -12.4,0.8 c -0.13334,0 -0.13334,0 -0.13334,-0.13334 0,0 0.13334,0 0.13334,0 z"
         style=""
         id="path829" />
      <path
         d="m -431.4693,611.11029 c -0.26667,-0.13334 -0.4,0 -0.53334,0.13333 l -0.4,0.93333 c -0.93333,0.4 -1.86666,1.2 -1.86666,1.46667 l 0.26666,0.53333 c -0.13333,0.26667 -0.13333,0.53334 -0.53333,0.53334 -0.26667,-0.13334 -0.13333,-0.53334 -0.53333,-0.53334 -0.8,0.13334 -0.93334,0.8 -1.33334,1.33334 l -0.8,-0.26667 c -0.26667,0.13333 -0.53333,0.26667 -0.8,0.4 -0.8,0.4 -1.46667,0.93333 -2.4,1.06667 -0.26667,0 -0.66667,0.13333 -0.8,0.53333 -0.13333,0.26667 0.26667,0.66667 0,0.93333 -0.4,0 -0.26667,-0.66666 -0.8,-0.8 0,0 -0.13333,0 -0.4,0 l -1.73333,1.06667 c -0.26667,0 -0.53334,-0.13333 -0.8,-0.13333 0,0 -0.13334,-0.13334 -0.13334,-0.13334 -0.53333,-0.93333 -0.93333,-1.86666 -1.6,-2.53333 -0.13333,-0.53333 -0.4,-0.13333 -0.4,-0.4 -0.66666,-0.93333 -1.73333,-1.2 -2.26666,-2 -0.13334,-0.13333 -0.26667,-0.13333 -0.4,-0.26667 -1.06667,-0.26666 -2,-0.8 -2.66667,-0.93333 -1.46667,-0.26667 -2.4,0.53333 -3.33333,0.93333 l -0.4,0.66667 c -0.93334,0.4 -1.73334,1.2 -2.13334,2.13333 0,0.26667 0.13334,0.4 0.26667,0.53334 0.13333,0.13333 0.53333,0.13333 0.53333,0.4 -0.53333,0 -0.93333,0 -1.33333,0 0,0 -0.13333,0 -0.26667,0.13333 l 0.13334,0.53333 c -0.26667,0.26667 -0.4,0.8 -0.93334,0.8 -0.13333,-0.8 -0.26666,-1.33333 -0.13333,-2.13333 l 0.53333,-0.66667 c 0,-0.66666 0.26667,-1.33333 0.53334,-2 l -0.26667,-0.66666 c 0.4,-0.53334 0.53333,-1.06667 0.66667,-1.86667 l -0.13334,-0.53333 c 0.53334,-0.53334 0.53334,-1.33334 0.93334,-1.86667 -0.26667,-0.8 0.13333,-1.6 0.4,-2.26667 0,-0.13333 0,-0.13333 0,-0.26666 l -0.26667,-0.66667 c 0,-0.53333 0.4,-0.8 0.13333,-1.33333 l -1.46666,-0.66667 c -0.4,0.26667 -0.8,0.26667 -1.06667,0.66667 0.13333,0.4 -0.4,0.66666 -0.26667,1.06666 l 0.53334,0.26667 c 0,0.26667 -0.13334,0.4 -0.26667,0.53333 -0.13333,0.4 0.13333,0.8 -0.26667,1.2 l -0.66666,-0.13333 c -0.4,0.26667 -0.53334,0.53333 -0.53334,0.93333 0,0.26667 0.13334,0.4 0,0.66667 -0.13333,0.4 -0.66666,0.53333 -0.53333,0.93333 0.13333,0.4 0.53333,0.53334 0.8,0.8 0.13333,0.4 0.53333,0.66667 0.4,1.06667 l -1.06667,-0.4 c -0.13333,0 -0.4,0 -0.66666,0.13333 -0.13334,0 -0.13334,0.13334 -0.26667,0.13334 0.26667,0.4 0.13333,1.06666 0.66667,1.33333 0,-0.13333 0,-0.13333 0,-0.13333 0,0 0,0 0,0.13333 0,0 0,0 0,0 0,0.13333 -0.13334,0.26667 -0.26667,0.4 -0.26667,0 -0.4,-0.4 -0.8,-0.26667 -0.4,0.53334 -0.53333,1.2 -0.4,1.86667 -0.13333,0.26667 -0.53333,0.26667 -0.53333,0.66667 0,0.26666 0.26666,0.4 0.13333,0.66666 l -0.53333,0.53334 c 0,0.93333 -0.66667,1.73333 -1.2,2.66666 0,0.66667 0.13333,1.33334 0.13333,2 l -0.8,0.66667 c -0.13333,0.4 -0.26667,0.66667 -0.13333,1.06667 l 0.26666,0.26666 c 0,0 0,0 0,0 l -0.66666,0.66667 c 0,0.53333 -0.66667,0.93333 -0.4,1.6 -0.26667,0.53333 -0.4,1.06667 -0.66667,1.46667 -0.26667,0.53333 -0.4,1.2 -0.53333,1.6 0.13333,0.53333 0.53333,0.66666 0.53333,1.06666 -0.13333,0.4 -0.66667,0.13334 -0.93333,0.4 -0.93334,2.66667 -1.06667,5.33334 -1.86667,8.13334 0,0.8 -0.13333,1.73333 0.13333,2.66667 0.26667,0.4 0.93334,0.4 1.2,0.8 0,0.8 0,1.6 0.13334,2.4 0.13333,0.8 -0.4,1.73333 0,2.4 0.26666,0.26666 0.53333,0.13333 0.8,0.13333 0.26666,0 0.66666,0 0.93333,0 0.66667,-0.4 1.33333,-0.66667 1.73333,-1.46667 0.4,-0.8 1.06667,-1.6 1.2,-2.53333 0.13334,-0.93333 0.93334,-1.6 1.06667,-2.53333 0,-0.13334 0,-0.26667 0.13333,-0.4 0.13334,-0.8 0.4,-1.46667 0.8,-2.26667 0.4,-0.93333 0.93334,-2 1.33334,-3.06667 0.53333,-1.2 0.8,-2.53333 1.6,-3.73333 0.13333,-0.26667 0.13333,-0.66667 0.26666,-1.06667 0.13334,-0.13333 0.26667,-0.4 0.4,-0.53333 0.4,-0.53334 0.66667,-1.2 0.93334,-1.86667 0.4,-0.53333 0.93333,-1.06667 1.2,-1.73333 0.66666,-1.73334 1.6,-3.06667 2.8,-4.4 0.8,-1.2 2,-2 3.46666,-2.26667 0.13334,0 0.4,0 0.53334,0 0,0.4 -0.26667,0.8 0,1.2 0,0.26667 0.13333,0.26667 0.26666,0.4 0.13334,0.26667 0,0.66667 0.26667,0.93333 0.26667,0.13334 0.53333,0.26667 0.8,0.4 0.13333,0.4 0.26667,0.8 0.8,1.06667 -0.13333,0.26667 -0.13333,0.53333 -0.13333,0.53333 0.66666,0.8 1.46666,1.06667 2.13333,1.33334 0.13333,0.26666 0.13333,0.66666 0.66667,0.8 0.93333,-0.53334 2,-0.26667 3.06666,-0.26667 1.06667,-0.53333 2.13334,-1.2 3.2,-1.73333 l 0.4,-0.53334 c 0.66667,-0.53333 1.46667,-0.8 2.00001,-1.2 0.53333,-0.53333 0.66666,-1.06666 1.06666,-1.46666 0.4,-0.26667 0.66667,-0.4 0.8,-0.66667 0.66667,-1.06667 1.33334,-2.13333 2,-3.06667 0.26667,-0.53333 0.53334,-1.06666 0.8,-1.73333 0.26667,-0.53333 0.26667,-1.2 0.53334,-1.73333 0.13333,-0.53334 0.13333,-1.06667 0,-1.6 z m -30.13334,-6.26667 c 0,0 0,0 0,0 z m 0,0 h 0.13333 c 0,0 -0.13333,0 -0.13333,0 z m 1.6,0.93333 v 0 c 0,0 0,0 0,0 z"
         style=""
         id="path831" />
      <path
         d="m -435.33722,629.91029 c 0.53333,-0.13334 0.53333,-0.53334 0.66666,-0.93334 0.4,-1.2 0.66667,-2.4 0.93334,-3.46666 0.66666,-1.73334 1.2,-3.46667 1.86666,-5.2 0.53334,-2 1.06667,-4.13334 1.86667,-6.13334 0.66667,-1.73333 0.93333,-3.46666 1.33333,-5.2 0.53334,-1.86666 0.93334,-3.86666 1.46667,-5.73333 0.26667,-0.66667 0.13333,-1.2 0,-1.86667 0.66667,-0.66666 1.2,-1.46666 1.33333,-2.53333 0.13334,-1.2 0.53334,-2.4 0.93334,-3.46667 0.66666,-1.6 1.2,-3.33333 1.6,-4.93333 0.4,-0.93333 0.4,-2 0.8,-2.8 0.53333,-0.93333 0.8,-1.86667 0.93333,-2.8 0.13333,-0.8 0.4,-1.46667 0.66667,-2.26667 1.2,-2.4 2,-4.93333 2.66666,-7.46667 0.66667,-1.86666 1.06667,-3.73333 1.86667,-5.46666 -0.26667,-1.6 -1.73333,-1.73334 -2.53333,-2.53334 l -2.13334,-0.53333 c -0.66666,0.53333 -0.93333,1.2 -1.2,1.73333 l 0.13334,1.06667 c -0.4,0.4 -1.06667,0.53333 -1.06667,1.2 0.13333,0.8 0.8,0.8 1.33333,1.06667 0.13334,0 0.13334,0.26666 0.13334,0.4 -0.4,0.66666 -1.06667,0 -1.6,0 -0.26667,0.13333 -0.66667,0.26666 -0.93334,0.66666 l 0.13334,0.66667 c -0.26667,0.4 -0.93334,0.53333 -1.06667,1.2 -0.4,0.53333 0.4,1.06667 0.13333,2 -0.53333,0.66667 -0.93333,1.73333 -1.06666,2.8 -0.53334,0.26667 -1.06667,0.4 -1.2,0.93333 0,0.93334 0.8,1.6 1.06666,2.4 -0.26666,0.66667 -0.4,1.2 -0.93333,1.6 -0.53333,0.13334 -0.8,-0.66666 -1.33333,-0.4 -0.26667,0.13334 -0.66667,0.53334 -0.8,1.06667 l 0.66666,2.13334 c -0.66666,-0.26667 -1.06666,-0.4 -1.33333,0.13333 l 0.13333,1.2 c -0.8,0.8 -0.8,1.86667 -1.06666,2.66667 0.4,0.53333 0.66666,0.93333 1.06666,1.33333 l -0.13333,0.93333 c 0.13333,0.26667 0.53333,0.53334 0.53333,0.93334 0,0.4 0,0.8 -0.26666,0.93333 -0.53334,0.13333 -0.66667,-0.26667 -0.93334,-0.4 l -0.53333,0.66667 c -0.4,0.26666 -0.8,-0.13334 -0.93333,0.26666 -0.26667,0.66667 0.53333,0.93334 0.53333,1.46667 -0.26667,0.53333 -1.06667,0.66667 -1.2,1.46667 0,0.13333 -0.13333,0.53333 0.13333,1.06666 0.66667,0.26667 1.2,0.8 1.33334,1.6 0,0.13334 -0.13334,0.26667 -0.13334,0.4 -0.26666,0.26667 -0.53333,0.4 -0.8,0.26667 -0.4,-0.26667 -0.13333,-1.06667 -0.93333,-1.06667 -0.4,1.73334 -0.4,3.6 -1.33333,5.2 0.26666,0.66667 0.53333,1.33334 0.66666,1.86667 l -0.8,2.4 c 0.13334,0.4 0.13334,0.66667 0.26667,0.93333 l -0.8,0.8 c -0.26667,0.8 0,1.6 0.13333,2.13334 -0.4,0.53333 -0.8,0.8 -0.8,1.2 0,0.93333 0.8,1.33333 0.66667,2.13333 l -0.4,1.2 c 0.4,1.06667 0.4,2.26667 0.13333,3.33333 -0.13333,0.66667 0,1.33334 -0.13333,2 0,0.66667 -0.26667,1.33334 -0.26667,2 0.13334,1.2 0,2.53334 0.53334,3.73334 z m 14.26666,-60.00001 c 0,0 -0.13333,0 -0.13333,-0.13333 -0.4,-0.66667 0.53333,-0.93333 0.13333,-1.86667 0.8,0.4 1.06667,0.66667 1.2,1.06667 -0.4,0.4 -0.66666,0.8 -1.2,0.93333 z m -2.26666,6.66667 c -0.66667,0.13333 -0.66667,0.13333 -0.53334,-0.8 0.53334,0.13333 0.66667,0.4 0.53334,0.8 z m -1.86667,3.86667 c 0,0 -0.13333,-0.13334 -0.13333,-0.13334 0.13333,-0.13333 0.26666,-0.13333 0.26666,-0.13333 0.13334,0 0.13334,0 0.13334,0.13333 -0.13334,0 -0.13334,0.13334 -0.26667,0.13334 z m -5.2,16.26667 c -0.26667,0 -0.26667,-0.13334 -0.13333,-0.26667 0,0 0.13333,0 0.13333,0 0.13333,0 0.13333,0.13333 0.13333,0.13333 0,0.13334 -0.13333,0.13334 -0.13333,0.13334 z m -11.46667,51.6 c 0.4,0 0.8,-0.13333 1.2,-0.13333 l 2.26667,-1.6 c 0.66667,-0.93334 1.33333,-1.86667 1.06667,-3.2 l -1.20001,-2.26667 c -0.8,-0.26667 -1.6,-0.53333 -2.4,-0.8 l -1.86666,1.33333 c -0.53334,0.93334 0.13333,1.73334 0,2.53334 -0.13334,1.06666 0,2.26666 0.13333,3.46666 0,0.13334 0.13333,0.26667 0.13333,0.4 0.26667,0.13334 0.53334,0.26667 0.66667,0.26667 z"
         style=""
         id="path833" />
    </g>
  </g>
</svg>
